<svg width="231" height="38" viewBox="0 0 231 38" fill="none" xmlns="http://www.w3.org/2000/svg">
<path d="M17.8466 28.0451V30H2.80627V7.61288H17.5629V9.56781H5.01345V17.6398H15.9548V19.5001H5.01345V28.0451H17.8466ZM20.1625 25.2703C20.1625 24.2403 20.4567 23.3574 21.0453 22.6217C21.6339 21.865 22.4432 21.2869 23.4732 20.8875C24.5243 20.4671 25.733 20.2569 27.0993 20.2569C27.8981 20.2569 28.7284 20.3199 29.5903 20.4461C30.4521 20.5722 31.2194 20.7614 31.892 21.0136V19.6262C31.892 18.2389 31.4821 17.1353 30.6623 16.3155C29.8425 15.4957 28.7074 15.0858 27.257 15.0858C26.3741 15.0858 25.5017 15.2539 24.6399 15.5903C23.799 15.9056 22.9162 16.3785 21.9913 17.0092L21.1714 15.4957C22.2435 14.7599 23.2945 14.2134 24.3246 13.856C25.3546 13.4777 26.4056 13.2885 27.4777 13.2885C29.4957 13.2885 31.0933 13.8666 32.2704 15.0227C33.4476 16.1788 34.0362 17.7764 34.0362 19.8154V27.4144C34.0362 27.7087 34.0992 27.9295 34.2253 28.0766C34.3515 28.2027 34.5512 28.2763 34.8244 28.2973V30C34.5932 30.021 34.3935 30.042 34.2253 30.0631C34.0572 30.0841 33.9311 30.0841 33.847 30.0631C33.3215 30.042 32.9221 29.8739 32.6488 29.5586C32.3755 29.2433 32.2284 28.9069 32.2074 28.5496L32.1758 27.3514C31.4401 28.2973 30.4837 29.033 29.3065 29.5586C28.1293 30.0631 26.9311 30.3153 25.7119 30.3153C24.6609 30.3153 23.7045 30.0946 22.8426 29.6532C22.0018 29.1907 21.3396 28.5811 20.8561 27.8243C20.3937 27.0466 20.1625 26.1952 20.1625 25.2703ZM31.1668 26.5316C31.3981 26.2373 31.5767 25.9535 31.7029 25.6802C31.829 25.407 31.892 25.1652 31.892 24.955V22.5586C31.1773 22.2854 30.4311 22.0752 29.6533 21.928C28.8966 21.7809 28.1293 21.7073 27.3516 21.7073C25.817 21.7073 24.5768 22.0121 23.6309 22.6217C22.6849 23.2313 22.212 24.0616 22.212 25.1127C22.212 25.7223 22.3696 26.3003 22.6849 26.8469C23.0003 27.3724 23.4627 27.8138 24.0723 28.1712C24.6819 28.5075 25.3966 28.6757 26.2164 28.6757C27.2465 28.6757 28.2029 28.476 29.0858 28.0766C29.9897 27.6772 30.6833 27.1622 31.1668 26.5316ZM46.8669 15.4641C45.4375 15.5062 44.1762 15.9056 43.0831 16.6623C42.0111 17.4191 41.2543 18.4596 40.8129 19.7839V30H38.6688V13.5723H40.6868V17.5137C41.2543 16.3575 42.0006 15.4221 42.9255 14.7074C43.8714 13.9927 44.8699 13.5933 45.9209 13.5092C46.1312 13.4882 46.3098 13.4777 46.457 13.4777C46.6251 13.4777 46.7618 13.4882 46.8669 13.5092V15.4641ZM63.5338 30H61.3897V20.8244C61.3897 18.8905 61.1059 17.4821 60.5383 16.5993C59.9708 15.6954 59.0774 15.2434 57.8582 15.2434C57.0174 15.2434 56.187 15.4536 55.3672 15.874C54.5474 16.2734 53.8222 16.8305 53.1916 17.5452C52.582 18.2389 52.1405 19.0377 51.8673 19.9416V30H49.7232V13.5723H51.6781V17.2929C52.1195 16.4942 52.6976 15.8005 53.4123 15.2119C54.127 14.6023 54.9363 14.1293 55.8402 13.793C56.7441 13.4567 57.6795 13.2885 58.6465 13.2885C59.5504 13.2885 60.3176 13.4567 60.9483 13.793C61.5789 14.1293 62.0834 14.6128 62.4617 15.2434C62.8401 15.853 63.1134 16.5993 63.2816 17.4821C63.4497 18.344 63.5338 19.3109 63.5338 20.383V30ZM77.6285 30.1577C75.9889 30.1577 74.4964 29.8423 73.1511 29.2117C71.8267 28.5811 70.6811 27.7298 69.7142 26.6577C68.7682 25.5646 68.0325 24.3454 67.507 23.0001C66.9815 21.6337 66.7187 20.2359 66.7187 18.8064C66.7187 17.314 66.992 15.8951 67.5385 14.5497C68.1061 13.1834 68.8733 11.9747 69.8403 10.9236C70.8283 9.85159 71.9844 9.01076 73.3087 8.40115C74.654 7.77053 76.1255 7.45522 77.7231 7.45522C79.3417 7.45522 80.8131 7.78104 82.1374 8.43269C83.4828 9.08433 84.6284 9.95669 85.5743 11.0498C86.5203 12.1429 87.256 13.3621 87.7815 14.7074C88.307 16.0527 88.5698 17.4401 88.5698 18.8695C88.5698 20.341 88.2965 21.7599 87.75 23.1262C87.2034 24.4715 86.4362 25.6802 85.4482 26.7523C84.4813 27.8033 83.3251 28.6336 81.9798 29.2433C80.6555 29.8529 79.205 30.1577 77.6285 30.1577ZM71.1331 18.8064C71.1331 19.7734 71.2802 20.7088 71.5745 21.6127C71.8688 22.5166 72.2892 23.3259 72.8357 24.0406C73.4033 24.7343 74.0865 25.2913 74.8853 25.7118C75.7051 26.1112 76.63 26.3109 77.66 26.3109C78.7111 26.3109 79.6465 26.1006 80.4663 25.6802C81.2861 25.2388 81.9693 24.6607 82.5158 23.946C83.0624 23.2103 83.4723 22.401 83.7455 21.5181C84.0398 20.6142 84.187 19.7103 84.187 18.8064C84.187 17.8395 84.0293 16.9146 83.714 16.0317C83.4197 15.1278 82.9888 14.329 82.4212 13.6353C81.8747 12.9206 81.1915 12.3636 80.3717 11.9642C79.5729 11.5438 78.669 11.3336 77.66 11.3336C76.588 11.3336 75.642 11.5543 74.8222 11.9957C74.0234 12.4161 73.3508 12.9837 72.8042 13.6984C72.2577 14.4131 71.8373 15.2119 71.543 16.0948C71.2697 16.9776 71.1331 17.8815 71.1331 18.8064ZM101.245 30.3153C99.9623 30.3153 98.8272 30.0315 97.8392 29.464C96.8723 28.8754 96.1155 28.0871 95.569 27.0991V36.7161H91.3438V13.4777H95.0329V16.3155C95.6636 15.3485 96.4624 14.5918 97.4293 14.0452C98.3963 13.4777 99.4999 13.1939 100.74 13.1939C101.854 13.1939 102.874 13.4146 103.799 13.856C104.745 14.2975 105.564 14.9176 106.258 15.7164C106.952 16.4942 107.488 17.398 107.866 18.4281C108.266 19.4371 108.465 20.5301 108.465 21.7073C108.465 23.3049 108.15 24.7553 107.519 26.0586C106.91 27.3619 106.058 28.4024 104.965 29.1802C103.893 29.9369 102.653 30.3153 101.245 30.3153ZM99.8257 26.7208C100.477 26.7208 101.066 26.5841 101.591 26.3109C102.117 26.0376 102.569 25.6697 102.947 25.2073C103.347 24.7238 103.641 24.1878 103.83 23.5992C104.04 22.9896 104.145 22.3589 104.145 21.7073C104.145 21.0136 104.03 20.3725 103.799 19.7839C103.588 19.1953 103.273 18.6803 102.853 18.2389C102.432 17.7764 101.938 17.4191 101.371 17.1668C100.824 16.9146 100.225 16.7884 99.5734 16.7884C99.174 16.7884 98.7641 16.862 98.3437 17.0092C97.9443 17.1353 97.5554 17.3245 97.1771 17.5767C96.7987 17.829 96.4624 18.1233 96.1681 18.4596C95.8948 18.7959 95.6951 19.1638 95.569 19.5632V23.4415C95.8212 24.0511 96.1576 24.6082 96.578 25.1127C97.0194 25.6172 97.5239 26.0166 98.0915 26.3109C98.659 26.5841 99.2371 26.7208 99.8257 26.7208ZM121.229 30.3153C119.946 30.3153 118.811 30.0315 117.823 29.464C116.856 28.8754 116.1 28.0871 115.553 27.0991V36.7161H111.328V13.4777H115.017V16.3155C115.648 15.3485 116.446 14.5918 117.413 14.0452C118.38 13.4777 119.484 13.1939 120.724 13.1939C121.838 13.1939 122.858 13.4146 123.783 13.856C124.729 14.2975 125.548 14.9176 126.242 15.7164C126.936 16.4942 127.472 17.398 127.85 18.4281C128.25 19.4371 128.449 20.5301 128.449 21.7073C128.449 23.3049 128.134 24.7553 127.503 26.0586C126.894 27.3619 126.042 28.4024 124.949 29.1802C123.877 29.9369 122.637 30.3153 121.229 30.3153ZM119.81 26.7208C120.461 26.7208 121.05 26.5841 121.576 26.3109C122.101 26.0376 122.553 25.6697 122.931 25.2073C123.331 24.7238 123.625 24.1878 123.814 23.5992C124.024 22.9896 124.13 22.3589 124.13 21.7073C124.13 21.0136 124.014 20.3725 123.783 19.7839C123.572 19.1953 123.257 18.6803 122.837 18.2389C122.416 17.7764 121.922 17.4191 121.355 17.1668C120.808 16.9146 120.209 16.7884 119.558 16.7884C119.158 16.7884 118.748 16.862 118.328 17.0092C117.928 17.1353 117.54 17.3245 117.161 17.5767C116.783 17.829 116.446 18.1233 116.152 18.4596C115.879 18.7959 115.679 19.1638 115.553 19.5632V23.4415C115.805 24.0511 116.142 24.6082 116.562 25.1127C117.004 25.6172 117.508 26.0166 118.076 26.3109C118.643 26.5841 119.221 26.7208 119.81 26.7208ZM130.713 18.6488C130.713 17.2824 130.944 15.9476 131.407 14.6443C131.89 13.32 132.584 12.1218 133.488 11.0498C134.392 9.95669 135.506 9.09484 136.83 8.46422C138.154 7.81257 139.657 7.48675 141.339 7.48675C143.336 7.48675 145.039 7.94921 146.447 8.87412C147.876 9.77802 148.927 10.9447 149.6 12.3741L147.866 13.4461C147.382 12.4582 146.773 11.6804 146.037 11.1128C145.301 10.5243 144.513 10.1038 143.672 9.85159C142.852 9.59934 142.033 9.47322 141.213 9.47322C139.867 9.47322 138.68 9.74649 137.65 10.293C136.62 10.8185 135.747 11.5333 135.033 12.4371C134.339 13.32 133.813 14.3185 133.456 15.4326C133.099 16.5257 132.92 17.6398 132.92 18.7749C132.92 20.0151 133.13 21.2028 133.551 22.3379C133.971 23.473 134.56 24.482 135.316 25.3649C136.073 26.2268 136.956 26.9205 137.965 27.446C138.995 27.9505 140.109 28.2027 141.307 28.2027C142.148 28.2027 143.01 28.0556 143.893 27.7613C144.776 27.467 145.596 27.0151 146.352 26.4054C147.13 25.7958 147.75 25.0076 148.213 24.0406L150.042 24.9865C149.579 26.1006 148.864 27.0466 147.897 27.8243C146.93 28.6021 145.848 29.1907 144.65 29.5901C143.473 29.9895 142.316 30.1892 141.181 30.1892C139.647 30.1892 138.238 29.8634 136.956 29.2117C135.674 28.5391 134.56 27.6562 133.614 26.5631C132.689 25.449 131.974 24.2088 131.47 22.8424C130.965 21.4551 130.713 20.0572 130.713 18.6488ZM160.464 30.3153C159.287 30.3153 158.194 30.0946 157.185 29.6532C156.176 29.1907 155.303 28.5706 154.568 27.7928C153.832 26.994 153.254 26.0796 152.833 25.0496C152.434 24.0196 152.234 22.916 152.234 21.7388C152.234 20.2043 152.581 18.7959 153.275 17.5137C153.99 16.2314 154.967 15.2119 156.207 14.4551C157.448 13.6774 158.856 13.2885 160.433 13.2885C162.051 13.2885 163.459 13.6774 164.658 14.4551C165.877 15.2329 166.833 16.2629 167.527 17.5452C168.221 18.8064 168.568 20.1938 168.568 21.7073C168.568 21.8755 168.568 22.0436 168.568 22.2118C168.568 22.3589 168.557 22.4746 168.536 22.5586H154.473C154.578 23.7358 154.904 24.7868 155.451 25.7118C156.018 26.6157 156.743 27.3409 157.626 27.8874C158.53 28.4129 159.508 28.6757 160.559 28.6757C161.631 28.6757 162.64 28.4024 163.586 27.8559C164.553 27.3093 165.225 26.5946 165.604 25.7118L167.464 26.2163C167.128 26.994 166.613 27.6982 165.919 28.3288C165.225 28.9595 164.405 29.4535 163.459 29.8108C162.535 30.1471 161.536 30.3153 160.464 30.3153ZM154.41 21.0136H166.55C166.465 19.8154 166.14 18.7644 165.572 17.8605C165.026 16.9566 164.3 16.2524 163.396 15.7479C162.514 15.2224 161.536 14.9596 160.464 14.9596C159.392 14.9596 158.415 15.2224 157.532 15.7479C156.649 16.2524 155.924 16.9671 155.356 17.892C154.809 18.7959 154.494 19.8365 154.41 21.0136ZM185.686 30H183.542V20.8244C183.542 18.8905 183.258 17.4821 182.691 16.5993C182.123 15.6954 181.23 15.2434 180.011 15.2434C179.17 15.2434 178.339 15.4536 177.52 15.874C176.7 16.2734 175.975 16.8305 175.344 17.5452C174.734 18.2389 174.293 19.0377 174.02 19.9416V30H171.876V13.5723H173.831V17.2929C174.272 16.4942 174.85 15.8005 175.565 15.2119C176.279 14.6023 177.089 14.1293 177.993 13.793C178.897 13.4567 179.832 13.2885 180.799 13.2885C181.703 13.2885 182.47 13.4567 183.101 13.793C183.731 14.1293 184.236 14.6128 184.614 15.2434C184.993 15.853 185.266 16.5993 185.434 17.4821C185.602 18.344 185.686 19.3109 185.686 20.383V30ZM197.987 29.2117C197.819 29.2748 197.556 29.3904 197.199 29.5586C196.842 29.7267 196.411 29.8739 195.906 30C195.402 30.1261 194.855 30.1892 194.267 30.1892C193.657 30.1892 193.079 30.0736 192.532 29.8423C192.007 29.6111 191.587 29.2643 191.271 28.8018C190.956 28.3183 190.798 27.7298 190.798 27.0361V15.2749H188.528V13.5723H190.798V8.02278H192.942V13.5723H196.726V15.2749H192.942V26.437C192.984 27.0256 193.195 27.467 193.573 27.7613C193.972 28.0556 194.424 28.2027 194.929 28.2027C195.517 28.2027 196.053 28.1081 196.537 27.9189C197.02 27.7087 197.315 27.5616 197.42 27.4775L197.987 29.2117ZM207.484 30.3153C206.306 30.3153 205.213 30.0946 204.204 29.6532C203.195 29.1907 202.323 28.5706 201.587 27.7928C200.852 26.994 200.274 26.0796 199.853 25.0496C199.454 24.0196 199.254 22.916 199.254 21.7388C199.254 20.2043 199.601 18.7959 200.295 17.5137C201.009 16.2314 201.987 15.2119 203.227 14.4551C204.467 13.6774 205.876 13.2885 207.452 13.2885C209.071 13.2885 210.479 13.6774 211.677 14.4551C212.896 15.2329 213.853 16.2629 214.547 17.5452C215.24 18.8064 215.587 20.1938 215.587 21.7073C215.587 21.8755 215.587 22.0436 215.587 22.2118C215.587 22.3589 215.577 22.4746 215.556 22.5586H201.493C201.598 23.7358 201.924 24.7868 202.47 25.7118C203.038 26.6157 203.763 27.3409 204.646 27.8874C205.55 28.4129 206.527 28.6757 207.578 28.6757C208.65 28.6757 209.659 28.4024 210.605 27.8559C211.572 27.3093 212.245 26.5946 212.623 25.7118L214.484 26.2163C214.147 26.994 213.632 27.6982 212.939 28.3288C212.245 28.9595 211.425 29.4535 210.479 29.8108C209.554 30.1471 208.556 30.3153 207.484 30.3153ZM201.43 21.0136H213.569C213.485 19.8154 213.159 18.7644 212.592 17.8605C212.045 16.9566 211.32 16.2524 210.416 15.7479C209.533 15.2224 208.556 14.9596 207.484 14.9596C206.412 14.9596 205.434 15.2224 204.551 15.7479C203.668 16.2524 202.943 16.9671 202.376 17.892C201.829 18.7959 201.514 19.8365 201.43 21.0136ZM227.093 15.4641C225.664 15.5062 224.403 15.9056 223.31 16.6623C222.238 17.4191 221.481 18.4596 221.039 19.7839V30H218.895V13.5723H220.913V17.5137C221.481 16.3575 222.227 15.4221 223.152 14.7074C224.098 13.9927 225.096 13.5933 226.147 13.5092C226.358 13.4882 226.536 13.4777 226.683 13.4777C226.852 13.4777 226.988 13.4882 227.093 13.5092V15.4641Z" fill="#1E1E1E"/>
<ellipse cx="77.457" cy="18.1645" rx="3.4273" ry="4.45549" fill="#FF9900"/>
</svg>
